<?xml version="1.0" encoding="iso-8859-1"?>
<!-- Generator: Adobe Illustrator 19.0.0, SVG Export Plug-In . SVG Version: 6.00 Build 0)  -->
<svg version="1.1" id="Layer_1" xmlns="http://www.w3.org/2000/svg" xmlns:xlink="http://www.w3.org/1999/xlink" x="0px" y="0px"
	 viewBox="0 0 512 512" style="enable-background:new 0 0 512 512;" xml:space="preserve">
<path style="fill:#77C6ED;" d="M256.013,0.028c-66.639,0-108.505,267.636-78.24,486.723h156.48
	C364.803,265.598,322.042,0.028,256.013,0.028z"/>
<path style="fill:#98DEF9;" d="M284.912,18.339c-34.51,45.177-59.289,168.978-59.289,314.649c0,55.467,3.594,107.766,9.948,153.763
	h98.682C358.573,310.696,336.784,86.244,284.912,18.339z"/>
<g>
	<path style="fill:#3BB3E2;" d="M173.388,216.405L308.594,65.669c-2.032-5.708-4.134-11.084-6.295-16.126L176.358,189.95
		C175.271,198.57,174.28,207.396,173.388,216.405z"/>
	<path style="fill:#3BB3E2;" d="M334.186,178.774L168.199,363.845c0.183,7.513,0.439,14.946,0.752,22.306L336.767,199.04
		C335.965,192.159,335.104,185.401,334.186,178.774z"/>
	<path style="fill:#3BB3E2;" d="M316.055,89.146l-145.56,162.272c-0.541,8.114-1.003,16.345-1.383,24.683l151.664-169.078
		C319.263,100.842,317.688,94.879,316.055,89.146z"/>
	<path style="fill:#3BB3E2;" d="M329.987,151.68c-1.129-6.553-2.317-12.948-3.562-19.171L168.054,309.076
		c-0.145,7.729-0.223,15.529-0.226,23.397L329.987,151.68z"/>
	<path style="fill:#3BB3E2;" d="M341.36,248.867c-0.496-7.19-1.055-14.285-1.673-21.278L170.603,416.096
		c0.49,7.197,1.044,14.297,1.656,21.297L341.36,248.867z"/>
	<path style="fill:#3BB3E2;" d="M341.629,413.107c0.528-8.068,0.97-16.263,1.339-24.55l-88.602,98.194h20.814L341.629,413.107z"/>
	<path style="fill:#3BB3E2;" d="M343.99,355.797c0.159-8.874,0.209-15.958,0.209-23.374L205.77,486.75h20.758L343.99,355.797z"/>
	<path style="fill:#3BB3E2;" d="M343.795,301.079c-0.189-7.506-0.445-14.939-0.764-22.291L175.149,465.953
		c0.795,6.884,1.644,13.659,2.556,20.292L343.795,301.079z"/>
</g>
<path style="fill:#224772;" d="M313.811,81.506c-33.148-108.685-82.455-108.665-115.597,0l22.731-12.91
	c2.106-0.95,5.605-1.785,8.636,1.075l20.003,18.872l0.002,0.002l0.209,0.197c1.125,1.019,6.667,5.442,12.646-0.199l0.002-0.001
	l19.61-18.502h0.001c0,0,4.26-4.153,11.571,0c0.001,0,0.001,0.001,0.001,0.001L313.811,81.506z"/>
<path style="fill:#305A84;" d="M282.053,70.041L282.053,70.041c0.001,0,4.261-4.153,11.572,0c0.001,0,0.001,0.001,0.001,0.001
	l20.185,11.464c-8.392-27.517-18.177-49.129-28.9-63.168c-11.905,15.587-22.653,40.526-31.624,72.502
	c2.395,0.861,5.7,0.962,9.154-2.296l0.002-0.001L282.053,70.041z"/>
<path style="fill:#224772;" d="M189.378,114.881L343.343,286.53c-0.541-14.626-1.331-28.948-2.358-42.903L197.554,83.722
	C194.652,93.428,191.919,103.829,189.378,114.881z"/>
<path style="fill:#305A84;" d="M237.172,168.165l106.17,118.365c-0.541-14.626-1.331-28.948-2.358-42.903L243.02,134.41
	C240.897,145.179,238.944,156.45,237.172,168.165z"/>
<path style="fill:#224772;" d="M175.343,198.306l167.768,187.041c0.537-12.82,0.876-25.884,1.013-39.144L180.119,163.356
	C178.353,174.598,176.756,186.263,175.343,198.306z"/>
<path style="fill:#305A84;" d="M227.936,256.942l115.175,128.405c0.537-12.82,0.876-25.884,1.013-39.144l-113.28-126.295
	C229.692,231.946,228.719,244.305,227.936,256.942z"/>
<path style="fill:#224772;" d="M168.562,289.818l167.091,186.284c1.469-11.63,2.764-23.629,3.874-35.956L170.478,251.681
	C169.65,264.132,169.006,276.856,168.562,289.818z"/>
<path style="fill:#305A84;" d="M225.623,332.987c0,6.93,0.056,13.809,0.167,20.633l109.862,122.482
	c1.469-11.63,2.764-23.629,3.874-35.956L225.78,313.335C225.68,319.839,225.623,326.388,225.623,332.987z"/>
<path style="fill:#224772;" d="M169.1,389.491l87.238,97.259h36.125l-124.54-138.847C168.087,362.012,168.484,375.891,169.1,389.491
	z"/>
<g>
	<path style="fill:#305A84;" d="M232.259,459.906l24.079,26.844h36.125l-64.119-71.486
		C229.376,430.596,230.686,445.508,232.259,459.906z"/>
	<path style="fill:#305A84;" d="M325.321,127.094L274.5,70.115L253.896,87.8l80.037,89.169
		C331.452,159.345,328.568,142.656,325.321,127.094z"/>
</g>
<path style="fill:#D3CDCB;" d="M372.675,486.75H139.35c-6.827,0-12.362,5.534-12.362,12.362c0,7.897,5.911,12.887,12.362,12.887
	h233.325c6.827,0,12.362-5.534,12.362-12.362C385.037,491.741,379.127,486.75,372.675,486.75z"/>
<path style="fill:#C4BEBB;" d="M372.675,499.375H139.35c-4.628,0-8.656-2.547-10.775-6.312C124.092,501.025,129.363,512,139.35,512
	h233.325c6.389,0,12.362-4.919,12.362-12.887c0-2.199-0.581-4.261-1.588-6.049C381.331,496.828,377.303,499.375,372.675,499.375z"/>
<g>
</g>
<g>
</g>
<g>
</g>
<g>
</g>
<g>
</g>
<g>
</g>
<g>
</g>
<g>
</g>
<g>
</g>
<g>
</g>
<g>
</g>
<g>
</g>
<g>
</g>
<g>
</g>
<g>
</g>
</svg>
