<svg height="512" viewBox="0 0 512 512" width="512" xmlns="http://www.w3.org/2000/svg"><g id="Fill_out_line" data-name="Fill out line"><g fill="#e6e6e6"><path d="m160 288h192v48h-192z"/><path d="m176 192h160v64h-160z"/><path d="m128 368h256v64h-256z"/></g><path d="m408 488h-304l24-56h256z" fill="#bc8d5d"/><path d="m327.66992 72h-143.33992a76.6107 76.6107 0 0 0 14.19-1.32007 77.311 77.311 0 0 0 13.71-3.89993 77.1758 77.1758 0 0 0 41.09-37.42l2.68-5.36 2.67993 5.36a77.09084 77.09084 0 0 0 17.06007 22.5399 77.22947 77.22947 0 0 0 24.03 14.8801 77.194 77.194 0 0 0 27.89992 5.22z" fill="#7ab555"/><path d="m360 72-14.4 19.2a31.99177 31.99177 0 0 1 -25.6 12.8h-128a31.99194 31.99194 0 0 1 -25.6-12.8l-14.4-19.2z" fill="#699b49"/><path d="m192 104h128v56h-128z" fill="#e6e6e6"/><path d="m354.83008 160h-197.66008a113.65617 113.65617 0 0 0 90.93-45.47l7.9-10.53 7.9 10.53a114.379 114.379 0 0 0 18.1 19.07 113.66727 113.66727 0 0 0 72.83008 26.4z" fill="#7ab555"/><path d="m384 160-22.63 22.63a31.99526 31.99526 0 0 1 -22.62 9.37h-165.5a31.99526 31.99526 0 0 1 -22.62-9.37l-22.63-22.63z" fill="#699b49"/><path d="m408 272a166.16247 166.16247 0 0 1 -61.71119-11.88449l-10.28881-4.11551h-160l-10.28878 4.11551a166.16247 166.16247 0 0 1 -61.71122 11.88449 96.61624 96.61624 0 0 0 53.25143 16h197.4971a96.61624 96.61624 0 0 0 53.25147-16z" fill="#699b49"/><path d="m368 368h32v32h-32z" fill="#ccc"/><path d="m112 368h32v32h-32z" fill="#ccc"/><path d="m240 368h32v32h-32z" fill="#ccc"/><path d="m448 336-10.90991 10.90991a72.01419 72.01419 0 0 1 -50.91016 21.09009h-260.35993a72.014 72.014 0 0 1 -50.91-21.09009l-10.91-10.90991z" fill="#699b49"/><path d="m431.62 336h-351.24a210.19739 210.19739 0 0 0 61.85-9.3l14.05-4.32a210.26734 210.26734 0 0 0 99.72-66.38 210.40963 210.40963 0 0 0 99.72 66.38l14.05 4.32a210.19739 210.19739 0 0 0 61.85 9.3z" fill="#7ab555"/><path d="m200 336 13.21867-5.28747a92.86968 92.86968 0 0 0 42.78133-34.71253 92.86972 92.86972 0 0 0 42.78131 34.7125l13.21869 5.2875z" fill="#f2e368"/><path d="m455.39111 332.93848a8.00015 8.00015 0 0 0 -7.39111-4.93848h-16.375a202.1556 202.1556 0 0 1 -59.499-8.94629l-12.126-3.7312v-19.46936a104.27319 104.27319 0 0 0 52.40918-17.17786 8.00005 8.00005 0 0 0 -4.40918-14.67529 157.48314 157.48314 0 0 1 -58.74023-11.312l-5.25977-2.104v-50.93483a39.6885 39.6885 0 0 0 23.0293-11.365l22.62744-22.62744a7.99981 7.99981 0 0 0 -5.65674-13.65673h-29.167a105.92494 105.92494 0 0 1 -26.833-3.48389v-37.35119a40.20064 40.20064 0 0 0 24-15.16492l14.3999-19.2002a8 8 0 0 0 -6.3999-12.7998h-32.32715a68.87448 68.87448 0 0 1 -25.01172-4.68262 69.0035 69.0035 0 0 1 -36.82568-33.53467l-2.68018-5.36035a7.99971 7.99971 0 0 0 -14.31054 0l-2.68018 5.36035a69.0035 69.0035 0 0 1 -36.82568 33.53467 68.87448 68.87448 0 0 1 -25.01172 4.68262h-32.32715a8 8 0 0 0 -6.3999 12.7998l14.3999 19.20069a40.20142 40.20142 0 0 0 24 15.16443v37.35119a105.92459 105.92459 0 0 1 -26.833 3.48389h-29.167a7.99981 7.99981 0 0 0 -5.65674 13.65674l22.62744 22.62744a39.68832 39.68832 0 0 0 23.0293 11.36499v50.93483l-5.25977 2.104a157.48314 157.48314 0 0 1 -58.74023 11.312 8.00005 8.00005 0 0 0 -4.40918 14.67529 104.27184 104.27184 0 0 0 52.40918 17.17786v19.46912l-12.126 3.731a202.14 202.14 0 0 1 -59.499 8.94673h-16.375a7.99981 7.99981 0 0 0 -5.65674 13.65674l10.91162 10.91162a79.53538 79.53538 0 0 0 34.74512 20.41125v27.02039a7.99977 7.99977 0 0 0 8 8h8v22.35815l-23.353 54.49048a8 8 0 0 0 7.353 11.15137h304a8 8 0 0 0 7.353-11.15137l-23.353-54.49048v-22.35815h8a7.99977 7.99977 0 0 0 8-8v-27.02039a79.53572 79.53572 0 0 0 34.74512-20.41125l10.91162-10.91162a7.99982 7.99982 0 0 0 1.73437-8.71826zm-329.56787 27.06152a63.52484 63.52484 0 0 1 -42.33484-16h345.0232a63.52484 63.52484 0 0 1 -42.33484 16zm122.17676 16h16v16h-16zm-12.67334-48a100.17709 100.17709 0 0 0 20.67334-18.66748 100.17709 100.17709 0 0 0 20.67334 18.66748zm80.0769-32h28.59644v13.82776a202.02429 202.02429 0 0 1 -28.59644-13.82776zm61.45728-18.792a88.64935 88.64935 0 0 1 -22.1123 2.792h-62.75293a202.07013 202.07013 0 0 1 -17.90361-16h60.36731l8.858 3.54346a173.9286 173.9286 0 0 0 33.54353 9.66454zm-192.86084-77.208h144v48h-144zm70.49951-80.6665 1.50049-2.0005 1.50049 2.00049a122.36314 122.36314 0 0 0 37.03808 32.66651h-77.07721a122.36257 122.36257 0 0 0 37.03815-32.6665zm53.07813 21.51123a106.25431 106.25431 0 0 1 -35.52464-28.84473h39.947v30.91553c-1.48877-.65894-2.96655-1.3429-4.42236-2.0708zm-51.57764-100.02735a84.8667 84.8667 0 0 0 22.00024 23.18262h-44.00042a84.86648 84.86648 0 0 0 22.00018-23.18262zm-83.2002 45.583-4.7998-6.40038h176l-4.7998 6.3999a24.11553 24.11553 0 0 1 -19.2002 9.6001h-128a24.11647 24.11647 0 0 1 -19.2002-9.59961zm27.2002 25.59962h39.94727a106.25353 106.25353 0 0 1 -35.52491 28.84473c-1.45587.7279-2.93353 1.41186-4.42236 2.0708zm-52.68652 56h217.373l-8.9707 8.9707a23.84457 23.84457 0 0 1 -16.97066 7.0293h-165.49024a23.84457 23.84457 0 0 1 -16.9707-7.0293zm21.36914 99.54346 8.85803-3.54346h60.36735a202.05467 202.05467 0 0 1 -17.90369 16h-62.75285a88.64935 88.64935 0 0 1 -22.1123-2.792 173.91858 173.91858 0 0 0 33.54346-9.66454zm27.91375 28.45654a202.02233 202.02233 0 0 1 -28.59637 13.82764v-13.82764zm59.40363-27.81445a217.68193 217.68193 0 0 0 91.14612 59.81445h-33.60559l-11.78809-4.71533a84.50662 84.50662 0 0 1 -39.09619-31.72217 7.99959 7.99959 0 0 0 -13.3125 0 84.50662 84.50662 0 0 1 -39.09619 31.72217l-11.78809 4.71533h-33.60559a217.68155 217.68155 0 0 0 91.14612-59.81445zm-120 107.81445v16h-16v-16.23145c1.93005.13794 16 .23145 16 .23145zm-19.86768 104 17.14277-40h245.44976l17.14283 40zm259.86768-56h-240v-16h8a7.99977 7.99977 0 0 0 8-8v-24h80v24a7.99977 7.99977 0 0 0 8 8h32a7.99977 7.99977 0 0 0 8-8v-24h80v24a7.99977 7.99977 0 0 0 8 8h8zm16-32h-16v-16s14.07-.09351 16-.23145z"/><path d="m200 216h16v16h-16z"/><path d="m232 216h16v16h-16z"/><path d="m264 216h16v16h-16z"/><path d="m296 216h16v16h-16z"/><path d="m168 392h16v16h-16z"/><path d="m200 392h16v16h-16z"/><path d="m296 392h16v16h-16z"/><path d="m328 392h16v16h-16z"/></g></svg>